<svg id="Layer_1" data-name="Layer 1" xmlns="http://www.w3.org/2000/svg" viewBox="0 0 281.91 164.83"><defs><style>.cls-1{fill:#fff;}</style></defs><title>49356_Starpath_</title><path class="cls-1" d="M281.47,34.2a5.92,5.92,0,0,0-7.14-3.45L255.75,8.5a4.57,4.57,0,0,0,.51-.88,4.39,4.39,0,0,0-4-6.09,4.5,4.5,0,0,0-1.66.32,4.4,4.4,0,0,0-2.38,2.36,4.31,4.31,0,0,0-.27.91H158.83a5.91,5.91,0,1,0-1,4.11l93,17V46.09L155.76,63.92a5.92,5.92,0,1,0-7.13,7.61h0v29.83h0a4.38,4.38,0,1,0,4.48.87L195.8,83.34h0l67.2,22v.13a5.91,5.91,0,0,0,5.92,5.91,5.81,5.81,0,0,0,1.87-.3,6.76,6.76,0,0,0,1-.41c.24-.14.48-.3.71-.46a6.87,6.87,0,0,0,.93-.86A5.91,5.91,0,0,0,265,101L233.41,69.36a6.09,6.09,0,0,0,1-2.17h12.69c0,.1.06.19.1.29a4.39,4.39,0,0,0,4.06,2.73,4.38,4.38,0,0,0,4.09-5.94L274,42a5.9,5.9,0,0,0,7.49-7.78Zm-27.8,27.94a4.5,4.5,0,0,0-2-.68V46.61l19.05-7.52a6,6,0,0,0,1,1.42ZM252.22,10.3a4.51,4.51,0,0,0,1.36-.23L272,32.1a6.43,6.43,0,0,0-1,1.22l-19.3-7.62V10.26A4.91,4.91,0,0,0,252.22,10.3Zm-94-1.74a7.19,7.19,0,0,0,.32-.76h89.69a4.39,4.39,0,0,0,2.63,2.3V25.4Zm93.41,18L270.61,34a5.9,5.9,0,0,0-.19,4.38l-18.75,7.41Zm-.77,35a4.34,4.34,0,0,0-1.27.29,4.38,4.38,0,0,0-2.53,2.75H234.44a5.16,5.16,0,0,0-.29-.92,5.91,5.91,0,0,0-11.24.92H156.33l94.57-17.6ZM195.58,82.31l-40.5-13.2h0a6.21,6.21,0,0,0,.83-1.92h67a6.59,6.59,0,0,0,.27.86A5.91,5.91,0,0,0,225,70.47Zm-43.89,19V71.53h0a5.93,5.93,0,0,0,2.91-1.82h0L195.14,83,152.5,101.76A4.07,4.07,0,0,0,151.69,101.36Zm111.39,3.12L196.23,82.71h0L225.66,70.9a5.93,5.93,0,0,0,5.25.4l.07,0h0l32.33,32.32A6.59,6.59,0,0,0,263.08,104.48Z"/><circle class="cls-1" cx="114.83" cy="34.89" r="3.05"/><circle class="cls-1" cx="137.27" cy="19.54" r="2.16"/><circle class="cls-1" cx="167.19" cy="35.72" r="4.31"/><circle class="cls-1" cx="141.78" cy="46.29" r="2.35"/><path class="cls-1" d="M135,74.8a6,6,0,0,0-1.54.2L121.88,59.75a5.91,5.91,0,1,0-9.8-6.48L23.56,37.15V25.67L117.13,9a5.9,5.9,0,1,0-.83-3.89H27.49A4.39,4.39,0,1,0,19.8,8.71l-12,15.92a5.71,5.71,0,0,0-1.86-.3,5.92,5.92,0,1,0,.6,11.8l12.13,16A5.91,5.91,0,1,0,28.27,59l87.59,15.81V86.25l-95,17.09a5.91,5.91,0,1,0,.24,3.46h92.05a4.38,4.38,0,1,0,7.76-3.86l12.48-16.52a6,6,0,0,0,1.54.2,5.91,5.91,0,1,0,0-11.82Zm-5.48,3.69-12.85-4.27V61.83a5.79,5.79,0,0,0,.72,0,5.88,5.88,0,0,0,2.41-.51L131,76.29A5.83,5.83,0,0,0,129.47,78.49ZM111.78,54a5.31,5.31,0,0,0-.19.65H28.93a5.91,5.91,0,0,0-5.37-4.56V38Zm-89-17.08L11.13,33a5.79,5.79,0,0,0,.7-2.78,5.26,5.26,0,0,0-.08-.89l11-3.44Zm.77-12V10.28A4.38,4.38,0,0,0,27.13,7.8h89.42a4.87,4.87,0,0,0,.21.53ZM22.07,10.15a4.16,4.16,0,0,0,.72.13V25.11L11.59,28.6A5.76,5.76,0,0,0,10.06,26ZM10.72,33.69l12.07,4V50.06a6,6,0,0,0-2,.5L9.16,35.19A6.18,6.18,0,0,0,10.72,33.69Zm17.9,24.58a5.48,5.48,0,0,0,.31-1h82.66a5.9,5.9,0,0,0,4.27,4.38V74Zm88,16.76,12.61,4.18a6.17,6.17,0,0,0-.2,1.5,5.81,5.81,0,0,0,.17,1.39L116.62,86Zm-.76,12v14.29a4.4,4.4,0,0,0-2.69,2.78h-92v-.05Zm2.93,14.28a4.34,4.34,0,0,0-2.17-.19V86.81l12.81-4a5.8,5.8,0,0,0,1.6,2.3Z"/><path class="cls-1" d="M11.19,144.81v-2.46h21a2.15,2.15,0,0,0,2.15-2.15v-1.43a2.12,2.12,0,0,0-.63-1.53,2,2,0,0,0-1.52-.64h-17a4.93,4.93,0,0,1-3.65-1.52,4.93,4.93,0,0,1-1.52-3.65v-.3A5.17,5.17,0,0,1,15.23,126h21v2.43h-21a2.09,2.09,0,0,0-1.52.64,2.11,2.11,0,0,0-.64,1.54V132a2.12,2.12,0,0,0,.64,1.55,2.08,2.08,0,0,0,1.52.63h17a5.16,5.16,0,0,1,5.16,5.19v.27a5.19,5.19,0,0,1-5.16,5.19Z"/><path class="cls-1" d="M57.22,144.81V128.88a.49.49,0,0,0-.48-.48H45.07V126h27.3v2.43H60.7a.49.49,0,0,0-.48.48v15.93Z"/><path class="cls-1" d="M95,144.81V128.9a.48.48,0,0,0-.48-.48h-3.3a2.14,2.14,0,0,0-1.52.63L73.84,144.81H69.66l17.47-17.48A4.62,4.62,0,0,1,90.4,126H98v18.84Z"/><path class="cls-1" d="M129.38,144.81l-3-6.22a.46.46,0,0,0-.43-.27H109.17a.47.47,0,0,0-.47.47v6h-3V126h22.14a4.91,4.91,0,0,1,3.65,1.51,5,5,0,0,1,1.52,3.67v2a5.08,5.08,0,0,1-.83,2.84,5.18,5.18,0,0,1-2.22,1.87.49.49,0,0,0-.23.65l.08.16,2.94,6.16Zm-20.21-16.39a.48.48,0,0,0-.47.48v6.49a.47.47,0,0,0,.47.47h18.66a2.15,2.15,0,0,0,2.16-2.17v-3.11a2.08,2.08,0,0,0-.63-1.52,2.13,2.13,0,0,0-1.53-.64Z"/><path class="cls-1" d="M140.69,144.81V126h22.14a5.16,5.16,0,0,1,5.17,5.16v2a5.17,5.17,0,0,1-5.17,5.19H144.18a.47.47,0,0,0-.48.47v6Zm3.49-16.41a.48.48,0,0,0-.48.48v6.51a.47.47,0,0,0,.48.47h18.65a2.09,2.09,0,0,0,1.53-.64,2.13,2.13,0,0,0,.63-1.53v-3.11a2.17,2.17,0,0,0-2.16-2.18Z"/><path class="cls-1" d="M201.5,144.81V128.9a.49.49,0,0,0-.48-.48h-3.3a2.11,2.11,0,0,0-1.52.63l-15.85,15.76h-4.18l17.47-17.48a4.6,4.6,0,0,1,3.27-1.36h7.59v18.84Z"/><path class="cls-1" d="M224.35,144.81V128.88a.48.48,0,0,0-.48-.48H212.2V126h27.31v2.43H227.83a.48.48,0,0,0-.47.48v15.93Z"/><path class="cls-1" d="M271.52,144.81v-7.72a.47.47,0,0,0-.48-.47H250.68a.47.47,0,0,0-.47.47v7.72h-3V126h3v7.72a.47.47,0,0,0,.47.47H271a.47.47,0,0,0,.48-.47V126h3v18.84Z"/><path class="cls-1" d="M65.87,160.28a2,2,0,0,1-.34,1.16,2.11,2.11,0,0,1-.9.77l0,.06,1.18,2.47a.13.13,0,0,1,0,.06.05.05,0,0,1,0,0H64.27a.07.07,0,0,1-.06,0l-1.14-2.39h-6.3v2.37s0,0,0,0l0,0H55.35l0,0a.05.05,0,0,1,0,0v-7.28a.08.08,0,0,1,0-.05l0,0h8.41a2.06,2.06,0,0,1,1.5.62,2,2,0,0,1,.61,1.5Zm-9.1.84h7a.63.63,0,0,0,.45-.18.61.61,0,0,0,.18-.45v-1.17a.6.6,0,0,0-.18-.44.64.64,0,0,0-.45-.19h-7Z"/><path class="cls-1" d="M88.4,157.42a2.08,2.08,0,0,1,1.51.62,2,2,0,0,1,.61,1.5v3.17a2,2,0,0,1-.61,1.5,2.08,2.08,0,0,1-1.51.62H82.05a2,2,0,0,1-1.49-.62,2,2,0,0,1-.63-1.5v-3.17a2,2,0,0,1,.63-1.5,2,2,0,0,1,1.49-.62Zm.64,1.9a.6.6,0,0,0-.18-.44.62.62,0,0,0-.46-.19H82.05a.65.65,0,0,0-.63.63v3.61a.65.65,0,0,0,.63.63H88.4a.62.62,0,0,0,.46-.19.6.6,0,0,0,.18-.44Z"/><path class="cls-1" d="M115.17,159.54v.1a2,2,0,0,1-.6,1.48,2.06,2.06,0,0,1,.6,1.49v.11a2,2,0,0,1-.62,1.49,2,2,0,0,1-1.5.62h-8.4l-.05,0a.05.05,0,0,1,0,0v-7.28a.08.08,0,0,1,0-.05l.05,0h8.4a2.12,2.12,0,0,1,2.12,2.12Zm-9.1-.85v1.8h7a.63.63,0,0,0,.64-.63v-.54a.58.58,0,0,0-.19-.44.62.62,0,0,0-.45-.19Zm7.62,4.24v-.53a.65.65,0,0,0-.64-.64h-7v1.8h7a.63.63,0,0,0,.64-.63Z"/><path class="cls-1" d="M137.7,157.42a2,2,0,0,1,1.5.62,2,2,0,0,1,.62,1.5v3.17a2,2,0,0,1-.62,1.5,2,2,0,0,1-1.5.62h-6.35a2,2,0,0,1-1.49-.62,2,2,0,0,1-.63-1.5v-3.17a2,2,0,0,1,.63-1.5,2,2,0,0,1,1.49-.62Zm.64,1.9a.6.6,0,0,0-.18-.44.62.62,0,0,0-.46-.19h-6.35a.65.65,0,0,0-.63.63v3.61a.65.65,0,0,0,.63.63h6.35a.62.62,0,0,0,.46-.19.6.6,0,0,0,.18-.44Z"/><path class="cls-1" d="M153.88,157.49a.08.08,0,0,1,0-.05l0,0h10.47l0,0a.08.08,0,0,1,0,.05v1.14a.08.08,0,0,1,0,0l0,0h-4.49v6.07a.08.08,0,0,1,0,.05l0,0H158.5l-.05,0a.08.08,0,0,1,0-.05v-6.07h-4.49l0,0a.08.08,0,0,1,0,0Z"/><path class="cls-1" d="M180,164.77a.05.05,0,0,1,0,0l-.05,0h-1.36l0,0s0,0,0,0v-7.28a.07.07,0,0,1,0-.05l0,0h1.36l.05,0a.08.08,0,0,1,0,.05Z"/><path class="cls-1" d="M204.59,163.56l0,0a.08.08,0,0,1,0,0v1.14a.08.08,0,0,1,0,.05l0,0h-8.4a2,2,0,0,1-1.5-.62,2,2,0,0,1-.62-1.5v-3.17a2,2,0,0,1,.62-1.5,2,2,0,0,1,1.5-.62h8.4l0,0a.08.08,0,0,1,0,.05v1.14a.08.08,0,0,1,0,0l0,0h-8.4a.58.58,0,0,0-.45.19.58.58,0,0,0-.19.44v3.61a.58.58,0,0,0,.19.44.58.58,0,0,0,.45.19Z"/><path class="cls-1" d="M220.2,159.85a.58.58,0,0,0,.19.45.58.58,0,0,0,.44.19h6.36a2,2,0,0,1,1.49.62,2,2,0,0,1,.62,1.5v.1a2.08,2.08,0,0,1-.62,1.5,2,2,0,0,1-1.49.62h-8l0,0a.08.08,0,0,1,0-.05v-1.14s0,0,0-.05h8a.61.61,0,0,0,.44-.19.58.58,0,0,0,.19-.44v-.54a.65.65,0,0,0-.63-.64h-6.36a2.1,2.1,0,0,1-2.11-2.11v-.11a2,2,0,0,1,.62-1.49,2,2,0,0,1,1.49-.62h8l0,0a.05.05,0,0,1,0,0v1.15a.08.08,0,0,1,0,0l0,0h-8a.6.6,0,0,0-.44.18.61.61,0,0,0-.19.45Z"/></svg>