<?xml version="1.0" encoding="UTF-8"?><svg id="Layer_1" xmlns="http://www.w3.org/2000/svg" viewBox="0 0 264.46 116.42"><path d="m1.13,96.4v-2.45h21.01c.59,0,1.1-.21,1.52-.63.42-.42.63-.93.63-1.52v-1.42c0-.59-.21-1.1-.63-1.53-.42-.43-.94-.65-1.53-.65H5.16c-1.44,0-2.63-.5-3.65-1.51s-1.51-2.21-1.51-3.65v-.3c0-1.44.5-2.63,1.51-3.65,1.02-1.02,2.21-1.51,3.65-1.51h21.01v2.44H5.16c-.59,0-1.1.21-1.52.63-.42.42-.63.94-.63,1.54v1.4c0,.6.21,1.12.63,1.54.42.42.93.63,1.52.63h16.98c1.44,0,2.63.5,3.65,1.51s1.51,2.22,1.51,3.67v.28c0,1.44-.5,2.64-1.51,3.66-1.02,1.02-2.21,1.52-3.65,1.52H1.13Z" style="fill:#fff;"/><path d="m47.15,96.4v-15.93c0-.26-.21-.47-.47-.47h-11.67v-2.44h27.31v2.44h-11.67c-.26,0-.47.21-.47.47v15.93h-3.01Z" style="fill:#fff;"/><path d="m84.92,96.4v-15.91c0-.26-.21-.47-.47-.47h-3.3c-.57,0-1.08.21-1.52.63l-15.86,15.76h-4.18l17.47-17.47c.96-.92,2.04-1.36,3.27-1.36h7.6v18.84h-3.01Z" style="fill:#fff;"/><path d="m119.32,96.4l-2.96-6.22c-.08-.16-.24-.27-.43-.27h-16.82c-.26,0-.47.21-.47.47v6.02h-3.01v-18.84h22.14c1.44,0,2.63.5,3.65,1.51,1.02,1.02,1.51,2.22,1.51,3.67v1.98c0,1.05-.28,2-.83,2.83-.55.84-1.3,1.47-2.21,1.88-.12.05-.21.15-.25.27s-.04.26.02.37l.08.16,2.93,6.16h-3.35Zm-20.21-16.38c-.26,0-.47.21-.47.47v6.49c0,.26.21.47.47.47h18.66c.59,0,1.1-.21,1.52-.63s.63-.94.63-1.54v-3.11c0-.59-.21-1.1-.63-1.52-.42-.42-.93-.63-1.52-.63h-18.66Z" style="fill:#fff;"/><path d="m130.63,96.4v-18.84h22.14c1.44,0,2.63.5,3.65,1.51,1.02,1.02,1.51,2.21,1.51,3.65v1.98c0,1.45-.5,2.65-1.51,3.67s-2.21,1.51-3.65,1.51h-18.66c-.26,0-.47.21-.47.47v6.04h-3.01Zm3.48-16.4c-.26,0-.47.21-.47.47v6.51c0,.26.21.47.47.47h18.66c.59,0,1.1-.22,1.53-.65.42-.43.63-.94.63-1.53v-3.11c0-.6-.21-1.12-.63-1.54-.42-.42-.93-.63-1.52-.63h-18.66Z" style="fill:#fff;"/><path d="m191.43,96.4v-15.91c0-.26-.21-.47-.47-.47h-3.3c-.57,0-1.08.21-1.52.63l-15.86,15.76h-4.18l17.47-17.47c.96-.92,2.04-1.36,3.27-1.36h7.6v18.84h-3.01Z" style="fill:#fff;"/><path d="m214.28,96.4v-15.93c0-.26-.21-.47-.47-.47h-11.67v-2.44h27.31v2.44h-11.67c-.26,0-.47.21-.47.47v15.93h-3.01Z" style="fill:#fff;"/><path d="m261.45,96.4v-7.72c0-.26-.21-.47-.47-.47h-20.36c-.26,0-.47.21-.47.47v7.72h-3.01v-18.84h3.01v7.72c0,.26.21.47.47.47h20.36c.26,0,.47-.21.47-.47v-7.72h3.01v18.84h-3.01Z" style="fill:#fff;"/></svg>