<?xml version="1.0" encoding="UTF-8"?><svg id="Layer_1" xmlns="http://www.w3.org/2000/svg" viewBox="0 0 264.46 116.42"><path d="m1.13,96.4v-2.45h21.01c.59,0,1.1-.21,1.52-.63.42-.42.63-.93.63-1.52v-1.42c0-.59-.21-1.1-.63-1.53-.42-.43-.94-.65-1.53-.65H5.16c-1.44,0-2.63-.5-3.65-1.51s-1.51-2.21-1.51-3.65v-.3c0-1.44.5-2.63,1.51-3.65,1.02-1.02,2.21-1.51,3.65-1.51h21.01v2.44H5.16c-.59,0-1.1.21-1.52.63-.42.42-.63.94-.63,1.54v1.4c0,.6.21,1.12.63,1.54.42.42.93.63,1.52.63h16.98c1.44,0,2.63.5,3.65,1.51s1.51,2.22,1.51,3.67v.28c0,1.44-.5,2.64-1.51,3.66-1.02,1.02-2.21,1.52-3.65,1.52H1.13Z" style="fill:#fff;"/><path d="m47.15,96.4v-15.93c0-.26-.21-.47-.47-.47h-11.67v-2.44h27.31v2.44h-11.67c-.26,0-.47.21-.47.47v15.93h-3.01Z" style="fill:#fff;"/><path d="m84.92,96.4v-15.91c0-.26-.21-.47-.47-.47h-3.3c-.57,0-1.08.21-1.52.63l-15.86,15.76h-4.18l17.47-17.47c.96-.92,2.04-1.36,3.27-1.36h7.6v18.84h-3.01Z" style="fill:#fff;"/><path d="m119.32,96.4l-2.96-6.22c-.08-.16-.24-.27-.43-.27h-16.82c-.26,0-.47.21-.47.47v6.02h-3.01v-18.84h22.14c1.44,0,2.63.5,3.65,1.51,1.02,1.02,1.51,2.22,1.51,3.67v1.98c0,1.05-.28,2-.83,2.83-.55.84-1.3,1.47-2.21,1.88-.12.05-.21.15-.25.27s-.04.26.02.37l.08.16,2.93,6.16h-3.35Zm-20.21-16.38c-.26,0-.47.21-.47.47v6.49c0,.26.21.47.47.47h18.66c.59,0,1.1-.21,1.52-.63s.63-.94.63-1.54v-3.11c0-.59-.21-1.1-.63-1.52-.42-.42-.93-.63-1.52-.63h-18.66Z" style="fill:#fff;"/><path d="m130.63,96.4v-18.84h22.14c1.44,0,2.63.5,3.65,1.51,1.02,1.02,1.51,2.21,1.51,3.65v1.98c0,1.45-.5,2.65-1.51,3.67s-2.21,1.51-3.65,1.51h-18.66c-.26,0-.47.21-.47.47v6.04h-3.01Zm3.48-16.4c-.26,0-.47.21-.47.47v6.51c0,.26.21.47.47.47h18.66c.59,0,1.1-.22,1.53-.65.42-.43.63-.94.63-1.53v-3.11c0-.6-.21-1.12-.63-1.54-.42-.42-.93-.63-1.52-.63h-18.66Z" style="fill:#fff;"/><path d="m191.43,96.4v-15.91c0-.26-.21-.47-.47-.47h-3.3c-.57,0-1.08.21-1.52.63l-15.86,15.76h-4.18l17.47-17.47c.96-.92,2.04-1.36,3.27-1.36h7.6v18.84h-3.01Z" style="fill:#fff;"/><path d="m214.28,96.4v-15.93c0-.26-.21-.47-.47-.47h-11.67v-2.44h27.31v2.44h-11.67c-.26,0-.47.21-.47.47v15.93h-3.01Z" style="fill:#fff;"/><path d="m261.45,96.4v-7.72c0-.26-.21-.47-.47-.47h-20.36c-.26,0-.47.21-.47.47v7.72h-3.01v-18.84h3.01v7.72c0,.26.21.47.47.47h20.36c.26,0,.47-.21.47-.47v-7.72h3.01v18.84h-3.01Z" style="fill:#fff;"/><path d="m55.81,111.87c0,.43-.11.82-.34,1.16-.23.34-.53.6-.9.77l.03.06,1.18,2.48s0,.04,0,.06c-.01.02-.03.03-.05.03h-1.5s-.04-.01-.06-.04l-1.14-2.39h-6.3v2.37s0,.03-.02.04-.03.02-.05.02h-1.36s-.03,0-.04-.02c-.01-.01-.02-.03-.02-.04v-7.28s0-.04.02-.05.03-.02.04-.02h8.41c.58,0,1.08.21,1.49.62.41.41.62.91.62,1.5v.74Zm-9.1.84h6.99c.17,0,.32-.06.44-.19s.19-.27.19-.45v-1.16c0-.17-.06-.32-.19-.44-.12-.12-.27-.19-.44-.19h-6.99v2.43Z" style="fill:#fff;"/><path d="m78.34,109.01c.59,0,1.09.21,1.5.62.41.41.62.91.62,1.5v3.17c0,.59-.21,1.09-.62,1.5s-.91.62-1.5.62h-6.35c-.58,0-1.08-.21-1.5-.62-.41-.41-.62-.91-.62-1.5v-3.17c0-.59.21-1.09.62-1.5.41-.41.91-.62,1.5-.62h6.35Zm.64,1.9c0-.17-.06-.32-.19-.45-.12-.13-.27-.19-.45-.19h-6.35c-.17,0-.32.06-.45.19s-.19.28-.19.45v3.6c0,.17.06.32.19.45s.28.19.45.19h6.35c.18,0,.33-.06.45-.19.12-.13.19-.28.19-.45v-3.6Z" style="fill:#fff;"/><path d="m105.11,111.13v.1c0,.58-.2,1.07-.61,1.48.4.41.61.9.61,1.48v.11c0,.58-.21,1.08-.62,1.49-.41.41-.91.62-1.5.62h-8.4s-.04,0-.05-.02c-.01-.01-.02-.03-.02-.04v-7.28s0-.04.02-.05.03-.02.05-.02h8.4c.58,0,1.08.21,1.5.62s.62.91.62,1.5Zm-9.11-.84v1.8h6.99c.17,0,.32-.06.45-.19s.19-.28.19-.45v-.53c0-.17-.06-.32-.19-.44-.13-.12-.28-.19-.45-.19h-6.99Zm7.63,4.23v-.53c0-.18-.06-.33-.19-.45-.13-.12-.28-.19-.45-.19h-6.99v1.8h6.99c.17,0,.32-.06.45-.19.13-.12.19-.27.19-.45Z" style="fill:#fff;"/><path d="m127.64,109.01c.59,0,1.09.21,1.5.62.41.41.62.91.62,1.5v3.17c0,.59-.21,1.09-.62,1.5s-.91.62-1.5.62h-6.35c-.58,0-1.08-.21-1.5-.62-.41-.41-.62-.91-.62-1.5v-3.17c0-.59.21-1.09.62-1.5.41-.41.91-.62,1.5-.62h6.35Zm.64,1.9c0-.17-.06-.32-.19-.45-.12-.13-.27-.19-.45-.19h-6.35c-.17,0-.32.06-.45.19s-.19.28-.19.45v3.6c0,.17.06.32.19.45s.28.19.45.19h6.35c.18,0,.33-.06.45-.19.12-.13.19-.28.19-.45v-3.6Z" style="fill:#fff;"/><path d="m143.82,109.08s0-.04.02-.05.03-.02.04-.02h10.46s.03,0,.04.02c.01.01.02.03.02.05v1.14s0,.03-.02.04-.03.02-.04.02h-4.49v6.08s0,.04-.02.05-.03.02-.04.02h-1.36s-.04,0-.05-.02c-.01-.01-.02-.03-.02-.05v-6.08h-4.49s-.03,0-.04-.02c-.01-.01-.02-.03-.02-.04v-1.14Z" style="fill:#fff;"/><path d="m169.94,116.36s0,.03-.02.04-.03.02-.05.02h-1.36s-.03,0-.04-.02c-.01-.01-.02-.03-.02-.04v-7.28s0-.04.02-.05.03-.02.04-.02h1.36s.04,0,.05.02c.01.01.02.03.02.05v7.28Z" style="fill:#fff;"/><path d="m194.53,115.15s.04,0,.05.02c.01.01.02.03.02.04v1.14s0,.04-.02.05-.03.02-.05.02h-8.4c-.59,0-1.09-.21-1.5-.62-.41-.41-.62-.91-.62-1.5v-3.17c0-.59.21-1.09.62-1.5s.91-.62,1.5-.62h8.4s.04,0,.05.02c.01.01.02.03.02.05v1.14s0,.03-.02.04-.03.02-.05.02h-8.4c-.18,0-.33.06-.45.19-.12.13-.19.28-.19.45v3.6c0,.17.06.32.19.45.12.13.27.19.45.19h8.4Z" style="fill:#fff;"/><path d="m210.14,111.44c0,.18.06.33.19.45.12.12.27.19.44.19h6.36c.58,0,1.08.21,1.49.62.41.41.62.91.62,1.5v.1c0,.58-.21,1.08-.62,1.5s-.91.62-1.49.62h-7.99s-.03,0-.04-.02c-.01-.01-.02-.03-.02-.05v-1.14s0-.04.02-.05c.01-.01.03-.02.04-.02h7.99c.17,0,.32-.06.44-.19.12-.12.19-.27.19-.44v-.53c0-.17-.06-.32-.19-.45s-.27-.19-.44-.19h-6.36c-.58,0-1.08-.21-1.49-.62-.41-.41-.62-.91-.62-1.49v-.11c0-.58.21-1.08.62-1.49.41-.41.91-.62,1.49-.62h7.99s.03,0,.04.02c.01.01.02.03.02.04v1.15s0,.03-.02.04c-.01.01-.03.02-.04.02h-7.99c-.17,0-.32.06-.44.19-.12.12-.19.27-.19.45v.53Z" style="fill:#fff;"/></svg>