<svg id="Layer_1" data-name="Layer 1" xmlns="http://www.w3.org/2000/svg" viewBox="0 0 278.82 158.52"><defs><style>.cls-1{fill:#fff;}</style></defs><title>49356_Starpath_</title><circle class="cls-1" cx="100.55" cy="15.9" r="1.53"/><polygon class="cls-1" points="101.76 37.11 100.29 15.19 100.54 15.19 136.49 14.13 136.5 14.63 100.81 15.67 102.25 37.08 101.76 37.11"/><rect class="cls-1" x="93.63" y="0.89" width="0.49" height="17.6" transform="translate(25.33 74.56) rotate(-49.32)"/><polygon class="cls-1" points="116.82 71.36 81.32 45.14 81.61 44.74 116.83 70.75 150.91 46.79 151.19 47.2 116.82 71.36"/><rect class="cls-1" x="108.06" y="78.71" width="15.89" height="0.49" transform="translate(25.47 186.17) rotate(-84.06)"/><polygon class="cls-1" points="196.6 56.9 183.54 37.31 141.82 28.26 141.92 27.78 183.84 36.88 197.01 56.63 196.6 56.9"/><rect class="cls-1" x="181.53" y="32.31" width="11.7" height="0.49" transform="translate(43.87 157.36) rotate(-50.87)"/><circle class="cls-1" cx="116.76" cy="70.52" r="1.53"/><circle class="cls-1" cx="183.69" cy="37.1" r="1.53"/><circle class="cls-1" cx="163.27" cy="85.28" r="1.53"/><polygon class="cls-1" points="188.75 96.08 163.1 85.49 163.06 85.41 148.82 63.72 149.24 63.46 163.43 85.08 188.92 95.61 188.75 96.08"/><polygon class="cls-1" points="163.12 85.78 162.72 85.49 168.66 78.2 169.06 78.49 163.12 85.78"/><circle class="cls-1" cx="115.65" cy="53.86" r="2.87"/><circle class="cls-1" cx="121.57" cy="28.49" r="1.27"/><circle class="cls-1" cx="168.71" cy="47.33" r="2.72"/><circle class="cls-1" cx="166.63" cy="16.81" r="2.43"/><circle class="cls-1" cx="185.21" cy="79.11" r="1.67"/><circle class="cls-1" cx="132.59" cy="89.76" r="1.67"/><path class="cls-1" d="M152.66,42.36a3.8,3.8,0,0,0-4,1.5,1.5,1.5,0,0,1-1.44.65l-38.92-5.78a3.59,3.59,0,0,1-2.8-2,3.85,3.85,0,0,0-2.6-2.17,4.05,4.05,0,0,1-2.72-2.37L89.3,7.34a1.31,1.31,0,0,1,.14-1.28h0a1.28,1.28,0,0,1,1.27-.51l39.89,7.26A6.91,6.91,0,0,1,135,15.42,3.85,3.85,0,0,0,138,17a3.81,3.81,0,1,0-1.85-7.07,7.09,7.09,0,0,1-4.93,1L91.08,3.6a1.24,1.24,0,0,1-1-.88A3.81,3.81,0,1,0,85.58,7.5a3.59,3.59,0,0,1,2.52,2L98.52,33.29a4.28,4.28,0,0,1,0,3.42,3.8,3.8,0,0,0,5.57,4.69l.26-.19a3.6,3.6,0,0,1,2.74-.67L147,46.47a1.47,1.47,0,0,1,1.15,1l0,.07a1.5,1.5,0,0,1-.22,1.56l-29,33.5a3.68,3.68,0,0,1-3,1.28h-.25a3.73,3.73,0,0,1-2.89-1.31L84.13,48.77a3.77,3.77,0,0,1-.81-3.15A3.78,3.78,0,0,0,81.92,42a3.8,3.8,0,1,0-2.21,6.79,3.67,3.67,0,0,1,2.92,1.32l28.51,33.58a3.86,3.86,0,0,1,.8,3.26,3.8,3.8,0,1,0,7.47,0,3.62,3.62,0,0,1,.89-3l28.26-32.59a4.18,4.18,0,0,1,3.13-1.52,3.73,3.73,0,0,0,3.61-5A3.87,3.87,0,0,0,152.66,42.36Z"/><path class="cls-1" d="M199.9,52.57,193.82,34a3.62,3.62,0,0,1,.68-3.52,3.8,3.8,0,1,0-5.89-4.8,4.65,4.65,0,0,1-3.86,1.74L148,26.23a3.86,3.86,0,0,1-3.13-1.8,4.25,4.25,0,0,0-2.48-1.92,3.53,3.53,0,0,0-4.26,2.77A3.81,3.81,0,0,0,141.87,30a3.76,3.76,0,0,0,2.26-.75,5,5,0,0,1,3.13-1L186,29.47a4.71,4.71,0,0,1,3,1.32,3.72,3.72,0,0,0,.76.56,3.52,3.52,0,0,1,1.71,2l5.84,17.8a4.25,4.25,0,0,1-.81,3.86,2.73,2.73,0,0,0-.23.25,7.74,7.74,0,0,1-5.24,2.65l-36.14,3.6a.8.8,0,0,1-.75-.35,3.78,3.78,0,0,0-3.69-1.61,3.81,3.81,0,0,0,.56,7.57,3.71,3.71,0,0,0,2-.58.84.84,0,0,1,1,.06l30.51,26.31a7.11,7.11,0,0,1,2.4,4.15,3.8,3.8,0,1,0,3.5-4.45,6.93,6.93,0,0,1-5-1.56L155,64.84a.82.82,0,0,1-.27-.77h0a.84.84,0,0,1,.73-.66l36.75-3.66a7.63,7.63,0,0,1,4.92,1.09,3.8,3.8,0,0,0,4.21-6.33A3.78,3.78,0,0,1,199.9,52.57Z"/><path class="cls-1" d="M1.19,137.41v-2.59H23.34a2.2,2.2,0,0,0,1.61-.66,2.24,2.24,0,0,0,.67-1.61v-1.5a2.24,2.24,0,0,0-.67-1.61,2.14,2.14,0,0,0-1.61-.68H5.45a5.21,5.21,0,0,1-3.85-1.6A5.17,5.17,0,0,1,0,123.31V123a5.17,5.17,0,0,1,1.6-3.85,5.17,5.17,0,0,1,3.85-1.6H27.6v2.57H5.45a2.17,2.17,0,0,0-1.61.67,2.23,2.23,0,0,0-.67,1.62v1.48a2.23,2.23,0,0,0,.67,1.63,2.21,2.21,0,0,0,1.61.67H23.34a5.45,5.45,0,0,1,5.45,5.46v.3a5.22,5.22,0,0,1-1.6,3.86,5.17,5.17,0,0,1-3.85,1.6Z"/><path class="cls-1" d="M49.71,137.41V120.62a.5.5,0,0,0-.5-.5H36.9v-2.57H65.69v2.57H53.38a.5.5,0,0,0-.5.5v16.79Z"/><path class="cls-1" d="M89.53,137.41V120.64a.5.5,0,0,0-.5-.5H85.55a2.26,2.26,0,0,0-1.6.66L67.24,137.41H62.83L81.25,119a4.87,4.87,0,0,1,3.44-1.44h8v19.86Z"/><path class="cls-1" d="M125.8,137.41l-3.13-6.56a.5.5,0,0,0-.45-.28H104.49a.5.5,0,0,0-.5.5v6.34h-3.17V117.55h23.34a5.17,5.17,0,0,1,3.85,1.6,5.24,5.24,0,0,1,1.6,3.87v2.08a5.33,5.33,0,0,1-.88,3,5.4,5.4,0,0,1-2.33,2,.51.51,0,0,0-.27.29.48.48,0,0,0,0,.39l.08.17,3.09,6.49Zm-21.31-17.27a.5.5,0,0,0-.5.5v6.84a.5.5,0,0,0,.5.5h19.67a2.2,2.2,0,0,0,1.61-.67,2.23,2.23,0,0,0,.67-1.62v-3.28a2.29,2.29,0,0,0-2.28-2.27Z"/><path class="cls-1" d="M137.72,137.41V117.55h23.34a5.46,5.46,0,0,1,5.45,5.45v2.08a5.46,5.46,0,0,1-5.45,5.47H141.39a.5.5,0,0,0-.5.5v6.36Zm3.67-17.29a.5.5,0,0,0-.5.5v6.86a.5.5,0,0,0,.5.5h19.67a2.18,2.18,0,0,0,1.61-.68,2.24,2.24,0,0,0,.67-1.61v-3.28a2.23,2.23,0,0,0-.67-1.62,2.17,2.17,0,0,0-1.61-.67Z"/><path class="cls-1" d="M201.82,137.41V120.64a.5.5,0,0,0-.5-.5h-3.48a2.26,2.26,0,0,0-1.6.66l-16.71,16.61h-4.41L193.54,119a4.87,4.87,0,0,1,3.45-1.44h8v19.86Z"/><path class="cls-1" d="M225.92,137.41V120.62a.5.5,0,0,0-.5-.5H213.11v-2.57H241.9v2.57H229.59a.5.5,0,0,0-.5.5v16.79Z"/><path class="cls-1" d="M275.65,137.41v-8.13a.5.5,0,0,0-.5-.5H253.68a.5.5,0,0,0-.5.5v8.13H250V117.55h3.17v8.14a.51.51,0,0,0,.5.5h21.47a.51.51,0,0,0,.5-.5v-8.14h3.17v19.86Z"/><path class="cls-1" d="M58.84,153.73a2.16,2.16,0,0,1-.36,1.22,2.26,2.26,0,0,1-.95.81l0,.06,1.24,2.61a.07.07,0,0,1,0,.06.05.05,0,0,1,0,0H57.15a.07.07,0,0,1-.06,0L55.89,156H49.25v2.5a.05.05,0,0,1,0,0,.06.06,0,0,1,0,0H47.75a.06.06,0,0,1,0,0,.05.05,0,0,1,0,0v-7.68a.08.08,0,0,1,0-.05l0,0h8.86a2.22,2.22,0,0,1,2.23,2.23Zm-9.59.89h7.36a.63.63,0,0,0,.47-.2.66.66,0,0,0,.2-.48v-1.22a.65.65,0,0,0-.2-.47.63.63,0,0,0-.47-.2H49.25Z"/><path class="cls-1" d="M82.59,150.71a2.2,2.2,0,0,1,1.59.65,2.17,2.17,0,0,1,.65,1.58v3.35a2.22,2.22,0,0,1-2.24,2.23H75.9a2.24,2.24,0,0,1-2.24-2.23v-3.35a2.15,2.15,0,0,1,.66-1.58,2.17,2.17,0,0,1,1.58-.65Zm.68,2a.69.69,0,0,0-.2-.48.65.65,0,0,0-.48-.19H75.9a.64.64,0,0,0-.47.19.65.65,0,0,0-.2.48v3.79a.63.63,0,0,0,.2.48.65.65,0,0,0,.47.2h6.69a.66.66,0,0,0,.48-.2.67.67,0,0,0,.2-.48Z"/><path class="cls-1" d="M110.82,152.94v.11a2.17,2.17,0,0,1-.65,1.57,2.13,2.13,0,0,1,.65,1.56v.12a2.24,2.24,0,0,1-2.24,2.22H99.72s0,0,0,0a.05.05,0,0,1,0,0v-7.68a.08.08,0,0,1,0-.05l0,0h8.86a2.15,2.15,0,0,1,1.58.66A2.12,2.12,0,0,1,110.82,152.94Zm-9.61-.89V154h7.37a.68.68,0,0,0,.67-.67v-.56a.61.61,0,0,0-.2-.47.65.65,0,0,0-.47-.2Zm8,4.46V156a.62.62,0,0,0-.2-.48.64.64,0,0,0-.47-.19h-7.37v1.9h7.37a.65.65,0,0,0,.47-.2A.62.62,0,0,0,109.25,156.51Z"/><path class="cls-1" d="M134.57,150.71a2.16,2.16,0,0,1,1.58.65,2.14,2.14,0,0,1,.65,1.58v3.35a2.22,2.22,0,0,1-2.23,2.23h-6.7a2.24,2.24,0,0,1-2.23-2.23v-3.35a2.24,2.24,0,0,1,2.23-2.23Zm.67,2a.68.68,0,0,0-.19-.48.65.65,0,0,0-.48-.19h-6.7a.64.64,0,0,0-.47.19.69.69,0,0,0-.2.48v3.79a.67.67,0,0,0,.2.48.65.65,0,0,0,.47.2h6.7a.66.66,0,0,0,.48-.2.66.66,0,0,0,.19-.48Z"/><path class="cls-1" d="M151.63,150.78s0,0,0-.05l0,0h11l0,0s0,0,0,.05V152a.06.06,0,0,1,0,.05.05.05,0,0,1,0,0H158v6.4a.08.08,0,0,1,0,.05.06.06,0,0,1-.05,0h-1.43a.06.06,0,0,1-.05,0,.08.08,0,0,1,0-.05v-6.4h-4.73a.05.05,0,0,1,0,0,.06.06,0,0,1,0-.05Z"/><path class="cls-1" d="M179.17,158.46a.05.05,0,0,1,0,0s0,0-.05,0h-1.43s0,0,0,0,0,0,0,0v-7.68s0,0,0-.05l0,0h1.43l.05,0a.08.08,0,0,1,0,.05Z"/><path class="cls-1" d="M205.09,157.19a.06.06,0,0,1,0,0,.05.05,0,0,1,0,0v1.2a.08.08,0,0,1,0,.05.06.06,0,0,1,0,0h-8.86a2.24,2.24,0,0,1-2.24-2.23v-3.35a2.24,2.24,0,0,1,2.24-2.23h8.86l0,0a.08.08,0,0,1,0,.05V152s0,0,0,.05l0,0h-8.86a.65.65,0,0,0-.48.19.68.68,0,0,0-.19.48v3.79a.66.66,0,0,0,.19.48.66.66,0,0,0,.48.2Z"/><path class="cls-1" d="M221.54,153.27a.66.66,0,0,0,.2.48.64.64,0,0,0,.47.19h6.7a2.24,2.24,0,0,1,2.23,2.24v.11a2.22,2.22,0,0,1-2.23,2.23h-8.42s0,0,0,0,0,0,0-.05v-1.2s0,0,0-.05l0,0h8.42a.65.65,0,0,0,.47-.2.63.63,0,0,0,.2-.47V156a.68.68,0,0,0-.67-.67h-6.7a2.22,2.22,0,0,1-2.23-2.23v-.11a2.22,2.22,0,0,1,2.23-2.23h8.42l0,0a0,0,0,0,1,0,0V152a.06.06,0,0,1,0,.05.05.05,0,0,1,0,0h-8.42a.64.64,0,0,0-.47.19.66.66,0,0,0-.2.48Z"/></svg>